<svg width="20" height="11" viewBox="0 0 20 11" fill="none" xmlns="http://www.w3.org/2000/svg">
  <path fill-rule="evenodd" clip-rule="evenodd" d="M14.2475 0.209834C14.3168 0.14332 14.3992 0.0905473 14.4898 0.0545405C14.5805 0.0185336 14.6777 0 14.7758 0C14.874 0 14.9711 0.0185336 15.0618 0.0545405C15.1524 0.0905473 15.2348 0.14332 15.3041 0.209834L19.781 4.49527C19.8505 4.56161 19.9056 4.64043 19.9432 4.72721C19.9808 4.81398 20.0002 4.907 20.0002 5.00095C20.0002 5.0949 19.9808 5.18792 19.9432 5.27469C19.9056 5.36147 19.8505 5.44028 19.781 5.50663L15.3041 9.79207C15.164 9.92618 14.9739 10.0015 14.7758 10.0015C14.5777 10.0015 14.3876 9.92618 14.2475 9.79207C14.1074 9.65795 14.0287 9.47605 14.0287 9.28638C14.0287 9.09672 14.1074 8.91482 14.2475 8.7807L18.1977 5.00095L14.2475 1.2212C14.178 1.15485 14.1229 1.07603 14.0853 0.98926C14.0477 0.902487 14.0283 0.809463 14.0283 0.715516C14.0283 0.621568 14.0477 0.528544 14.0853 0.441771C14.1229 0.354998 14.178 0.276181 14.2475 0.209834Z" fill="#FF7112"/>
  <path fill-rule="evenodd" clip-rule="evenodd" d="M0 4.9994C0 4.80997 0.0861375 4.6283 0.239463 4.49435C0.392788 4.36041 0.600742 4.28516 0.817577 4.28516H17.9867C18.2035 4.28516 18.4115 4.36041 18.5648 4.49435C18.7181 4.6283 18.8043 4.80997 18.8043 4.9994C18.8043 5.18882 18.7181 5.37049 18.5648 5.50444C18.4115 5.63838 18.2035 5.71363 17.9867 5.71363H0.817577C0.600742 5.71363 0.392788 5.63838 0.239463 5.50444C0.0861375 5.37049 0 5.18882 0 4.9994Z" fill="#FF7112"/>
</svg>