<svg width="20" height="20" viewBox="0 0 20 20" fill="none" xmlns="http://www.w3.org/2000/svg">
<path d="M10.0001 6.87531C8.2798 6.87531 6.87589 8.27921 6.87589 9.99953C6.87589 11.7198 8.2798 13.1237 10.0001 13.1237C11.7204 13.1237 13.1243 11.7198 13.1243 9.99953C13.1243 8.27921 11.7204 6.87531 10.0001 6.87531ZM19.3704 9.99953C19.3704 8.70578 19.3821 7.42374 19.3095 6.13234C19.2368 4.63234 18.8946 3.30109 17.7978 2.20421C16.6985 1.10499 15.3696 0.76515 13.8696 0.692494C12.5759 0.619838 11.2939 0.631557 10.0025 0.631557C8.7087 0.631557 7.42667 0.619838 6.13527 0.692494C4.63527 0.76515 3.30402 1.10734 2.20714 2.20421C1.10792 3.30343 0.76808 4.63234 0.695424 6.13234C0.622767 7.42609 0.634486 8.70812 0.634486 9.99953C0.634486 11.2909 0.622767 12.5753 0.695424 13.8667C0.76808 15.3667 1.11027 16.698 2.20714 17.7948C3.30636 18.8941 4.63527 19.2339 6.13527 19.3066C7.42902 19.3792 8.71105 19.3675 10.0025 19.3675C11.2962 19.3675 12.5782 19.3792 13.8696 19.3066C15.3696 19.2339 16.7009 18.8917 17.7978 17.7948C18.897 16.6956 19.2368 15.3667 19.3095 13.8667C19.3845 12.5753 19.3704 11.2933 19.3704 9.99953ZM10.0001 14.8066C7.33995 14.8066 5.19308 12.6597 5.19308 9.99953C5.19308 7.33937 7.33995 5.19249 10.0001 5.19249C12.6603 5.19249 14.8071 7.33937 14.8071 9.99953C14.8071 12.6597 12.6603 14.8066 10.0001 14.8066ZM15.004 6.11827C14.3829 6.11827 13.8814 5.61671 13.8814 4.99562C13.8814 4.37453 14.3829 3.87296 15.004 3.87296C15.6251 3.87296 16.1267 4.37453 16.1267 4.99562C16.1269 5.1431 16.0979 5.28917 16.0416 5.42546C15.9852 5.56175 15.9026 5.68558 15.7983 5.78987C15.694 5.89415 15.5701 5.97684 15.4339 6.0332C15.2976 6.08955 15.1515 6.11846 15.004 6.11827Z" fill="#D8D8D8"/>
</svg>
