<svg width="16" height="16" viewBox="0 0 16 16" fill="none" xmlns="http://www.w3.org/2000/svg">
<path d="M15.1875 0.1875H0.8125C0.466797 0.1875 0.1875 0.466797 0.1875 0.8125V15.1875C0.1875 15.5332 0.466797 15.8125 0.8125 15.8125H15.1875C15.5332 15.8125 15.8125 15.5332 15.8125 15.1875V0.8125C15.8125 0.466797 15.5332 0.1875 15.1875 0.1875ZM4.82227 13.502H2.50391V6.04492H4.82227V13.502ZM3.66406 5.02539C3.39829 5.02539 3.13849 4.94658 2.91751 4.79893C2.69654 4.65127 2.5243 4.44141 2.4226 4.19587C2.32089 3.95033 2.29428 3.68015 2.34613 3.41949C2.39798 3.15883 2.52596 2.91939 2.71389 2.73147C2.90181 2.54354 3.14125 2.41556 3.40191 2.36371C3.66257 2.31186 3.93275 2.33847 4.17829 2.44018C4.42383 2.54188 4.6337 2.71411 4.78135 2.93509C4.929 3.15607 5.00781 3.41587 5.00781 3.68164C5.00586 4.42383 4.4043 5.02539 3.66406 5.02539ZM13.502 13.502H11.1855V9.875C11.1855 9.00977 11.1699 7.89844 9.98047 7.89844C8.77539 7.89844 8.58984 8.83984 8.58984 9.8125V13.502H6.27539V6.04492H8.49805V7.06445H8.5293C8.83789 6.47852 9.59375 5.85938 10.7227 5.85938C13.0703 5.85938 13.502 7.4043 13.502 9.41211V13.502Z" fill="#7C788A"/>
</svg>
